<?xml version="1.0" encoding="UTF-8" standalone="no"?>
<!DOCTYPE svg PUBLIC "-//W3C//DTD SVG 1.1//EN"
 "http://www.w3.org/Graphics/SVG/1.1/DTD/svg11.dtd">
<!-- Generated by graphviz version 2.40.1 (20161225.0304)
 -->
<!-- Title: Tree Pages: 1 -->
<svg width="767pt" height="581pt"
 viewBox="0.00 0.00 767.00 581.00" xmlns="http://www.w3.org/2000/svg" xmlns:xlink="http://www.w3.org/1999/xlink">
<g id="graph0" class="graph" transform="scale(1 1) rotate(0) translate(4 577)">
<title>Tree</title>
<polygon fill="#ffffff" stroke="transparent" points="-4,4 -4,-577 763,-577 763,4 -4,4"/>
<!-- 0 -->
<g id="node1" class="node">
<title>0</title>
<polygon fill="#fffdfd" stroke="#000000" points="276.5,-573 112.5,-573 112.5,-505 276.5,-505 276.5,-573"/>
<text text-anchor="middle" x="194.5" y="-557.8" font-family="Times,serif" font-size="14.00" fill="#000000">petal length (cm) &lt;= 2.45</text>
<text text-anchor="middle" x="194.5" y="-542.8" font-family="Times,serif" font-size="14.00" fill="#000000">samples = 120</text>
<text text-anchor="middle" x="194.5" y="-527.8" font-family="Times,serif" font-size="14.00" fill="#000000">value = [41, 40, 39]</text>
<text text-anchor="middle" x="194.5" y="-512.8" font-family="Times,serif" font-size="14.00" fill="#000000">class = setosa</text>
</g>
<!-- 1 -->
<g id="node2" class="node">
<title>1</title>
<polygon fill="#e58139" stroke="#000000" points="175,-461.5 58,-461.5 58,-408.5 175,-408.5 175,-461.5"/>
<text text-anchor="middle" x="116.5" y="-446.3" font-family="Times,serif" font-size="14.00" fill="#000000">samples = 41</text>
<text text-anchor="middle" x="116.5" y="-431.3" font-family="Times,serif" font-size="14.00" fill="#000000">value = [41, 0, 0]</text>
<text text-anchor="middle" x="116.5" y="-416.3" font-family="Times,serif" font-size="14.00" fill="#000000">class = setosa</text>
</g>
<!-- 0&#45;&gt;1 -->
<g id="edge1" class="edge">
<title>0&#45;&gt;1</title>
<path fill="none" stroke="#000000" d="M168.9599,-504.9465C160.4509,-493.6012 150.9675,-480.9567 142.4293,-469.5724"/>
<polygon fill="#000000" stroke="#000000" points="145.2067,-467.4422 136.4066,-461.5422 139.6067,-471.6422 145.2067,-467.4422"/>
<text text-anchor="middle" x="132.8711" y="-482.5909" font-family="Times,serif" font-size="14.00" fill="#000000">True</text>
</g>
<!-- 2 -->
<g id="node3" class="node">
<title>2</title>
<polygon fill="#fafefc" stroke="#000000" points="354,-469 193,-469 193,-401 354,-401 354,-469"/>
<text text-anchor="middle" x="273.5" y="-453.8" font-family="Times,serif" font-size="14.00" fill="#000000">petal width (cm) &lt;= 1.55</text>
<text text-anchor="middle" x="273.5" y="-438.8" font-family="Times,serif" font-size="14.00" fill="#000000">samples = 79</text>
<text text-anchor="middle" x="273.5" y="-423.8" font-family="Times,serif" font-size="14.00" fill="#000000">value = [0, 40, 39]</text>
<text text-anchor="middle" x="273.5" y="-408.8" font-family="Times,serif" font-size="14.00" fill="#000000">class = versicolor</text>
</g>
<!-- 0&#45;&gt;2 -->
<g id="edge2" class="edge">
<title>0&#45;&gt;2</title>
<path fill="none" stroke="#000000" d="M220.3676,-504.9465C227.1196,-496.0578 234.4774,-486.3716 241.5059,-477.1188"/>
<polygon fill="#000000" stroke="#000000" points="244.3125,-479.2102 247.5743,-469.13 238.7383,-474.976 244.3125,-479.2102"/>
<text text-anchor="middle" x="250.9582" y="-490.1999" font-family="Times,serif" font-size="14.00" fill="#000000">False</text>
</g>
<!-- 3 -->
<g id="node4" class="node">
<title>3</title>
<polygon fill="#3ee684" stroke="#000000" points="265.5,-365 101.5,-365 101.5,-297 265.5,-297 265.5,-365"/>
<text text-anchor="middle" x="183.5" y="-349.8" font-family="Times,serif" font-size="14.00" fill="#000000">petal length (cm) &lt;= 5.25</text>
<text text-anchor="middle" x="183.5" y="-334.8" font-family="Times,serif" font-size="14.00" fill="#000000">samples = 38</text>
<text text-anchor="middle" x="183.5" y="-319.8" font-family="Times,serif" font-size="14.00" fill="#000000">value = [0, 37, 1]</text>
<text text-anchor="middle" x="183.5" y="-304.8" font-family="Times,serif" font-size="14.00" fill="#000000">class = versicolor</text>
</g>
<!-- 2&#45;&gt;3 -->
<g id="edge3" class="edge">
<title>2&#45;&gt;3</title>
<path fill="none" stroke="#000000" d="M244.0306,-400.9465C236.2607,-391.968 227.7868,-382.1758 219.7064,-372.8385"/>
<polygon fill="#000000" stroke="#000000" points="222.226,-370.4014 213.0356,-365.13 216.9328,-374.982 222.226,-370.4014"/>
</g>
<!-- 6 -->
<g id="node7" class="node">
<title>6</title>
<polygon fill="#8b49e7" stroke="#000000" points="445,-365 284,-365 284,-297 445,-297 445,-365"/>
<text text-anchor="middle" x="364.5" y="-349.8" font-family="Times,serif" font-size="14.00" fill="#000000">petal width (cm) &lt;= 1.75</text>
<text text-anchor="middle" x="364.5" y="-334.8" font-family="Times,serif" font-size="14.00" fill="#000000">samples = 41</text>
<text text-anchor="middle" x="364.5" y="-319.8" font-family="Times,serif" font-size="14.00" fill="#000000">value = [0, 3, 38]</text>
<text text-anchor="middle" x="364.5" y="-304.8" font-family="Times,serif" font-size="14.00" fill="#000000">class = virginica</text>
</g>
<!-- 2&#45;&gt;6 -->
<g id="edge6" class="edge">
<title>2&#45;&gt;6</title>
<path fill="none" stroke="#000000" d="M303.2968,-400.9465C311.153,-391.968 319.7212,-382.1758 327.8913,-372.8385"/>
<polygon fill="#000000" stroke="#000000" points="330.6852,-374.9606 334.6363,-365.13 325.4171,-370.351 330.6852,-374.9606"/>
</g>
<!-- 4 -->
<g id="node5" class="node">
<title>4</title>
<polygon fill="#39e581" stroke="#000000" points="117,-253.5 0,-253.5 0,-200.5 117,-200.5 117,-253.5"/>
<text text-anchor="middle" x="58.5" y="-238.3" font-family="Times,serif" font-size="14.00" fill="#000000">samples = 37</text>
<text text-anchor="middle" x="58.5" y="-223.3" font-family="Times,serif" font-size="14.00" fill="#000000">value = [0, 37, 0]</text>
<text text-anchor="middle" x="58.5" y="-208.3" font-family="Times,serif" font-size="14.00" fill="#000000">class = versicolor</text>
</g>
<!-- 3&#45;&gt;4 -->
<g id="edge4" class="edge">
<title>3&#45;&gt;4</title>
<path fill="none" stroke="#000000" d="M142.5703,-296.9465C128.4045,-285.1606 112.5537,-271.9726 98.4662,-260.2519"/>
<polygon fill="#000000" stroke="#000000" points="100.3275,-257.2474 90.4016,-253.5422 95.8504,-262.6285 100.3275,-257.2474"/>
</g>
<!-- 5 -->
<g id="node6" class="node">
<title>5</title>
<polygon fill="#8139e5" stroke="#000000" points="245.5,-253.5 135.5,-253.5 135.5,-200.5 245.5,-200.5 245.5,-253.5"/>
<text text-anchor="middle" x="190.5" y="-238.3" font-family="Times,serif" font-size="14.00" fill="#000000">samples = 1</text>
<text text-anchor="middle" x="190.5" y="-223.3" font-family="Times,serif" font-size="14.00" fill="#000000">value = [0, 0, 1]</text>
<text text-anchor="middle" x="190.5" y="-208.3" font-family="Times,serif" font-size="14.00" fill="#000000">class = virginica</text>
</g>
<!-- 3&#45;&gt;5 -->
<g id="edge5" class="edge">
<title>3&#45;&gt;5</title>
<path fill="none" stroke="#000000" d="M185.7921,-296.9465C186.5112,-286.2621 187.3079,-274.4254 188.0383,-263.5742"/>
<polygon fill="#000000" stroke="#000000" points="191.534,-263.7547 188.7135,-253.5422 184.5498,-263.2845 191.534,-263.7547"/>
</g>
<!-- 7 -->
<g id="node8" class="node">
<title>7</title>
<polygon fill="#ffffff" stroke="#000000" points="441,-261 276,-261 276,-193 441,-193 441,-261"/>
<text text-anchor="middle" x="358.5" y="-245.8" font-family="Times,serif" font-size="14.00" fill="#000000">sepal length (cm) &lt;= 5.45</text>
<text text-anchor="middle" x="358.5" y="-230.8" font-family="Times,serif" font-size="14.00" fill="#000000">samples = 4</text>
<text text-anchor="middle" x="358.5" y="-215.8" font-family="Times,serif" font-size="14.00" fill="#000000">value = [0, 2, 2]</text>
<text text-anchor="middle" x="358.5" y="-200.8" font-family="Times,serif" font-size="14.00" fill="#000000">class = versicolor</text>
</g>
<!-- 6&#45;&gt;7 -->
<g id="edge7" class="edge">
<title>6&#45;&gt;7</title>
<path fill="none" stroke="#000000" d="M362.5354,-296.9465C362.064,-288.776 361.5538,-279.9318 361.0598,-271.3697"/>
<polygon fill="#000000" stroke="#000000" points="364.5393,-270.9118 360.469,-261.13 357.5509,-271.315 364.5393,-270.9118"/>
</g>
<!-- 12 -->
<g id="node13" class="node">
<title>12</title>
<polygon fill="#843ee6" stroke="#000000" points="623.5,-261 459.5,-261 459.5,-193 623.5,-193 623.5,-261"/>
<text text-anchor="middle" x="541.5" y="-245.8" font-family="Times,serif" font-size="14.00" fill="#000000">petal length (cm) &lt;= 4.85</text>
<text text-anchor="middle" x="541.5" y="-230.8" font-family="Times,serif" font-size="14.00" fill="#000000">samples = 37</text>
<text text-anchor="middle" x="541.5" y="-215.8" font-family="Times,serif" font-size="14.00" fill="#000000">value = [0, 1, 36]</text>
<text text-anchor="middle" x="541.5" y="-200.8" font-family="Times,serif" font-size="14.00" fill="#000000">class = virginica</text>
</g>
<!-- 6&#45;&gt;12 -->
<g id="edge12" class="edge">
<title>6&#45;&gt;12</title>
<path fill="none" stroke="#000000" d="M422.4564,-296.9465C439.1125,-287.1599 457.4137,-276.4066 474.5644,-266.3294"/>
<polygon fill="#000000" stroke="#000000" points="476.5646,-269.2136 483.4134,-261.13 473.0184,-263.1783 476.5646,-269.2136"/>
</g>
<!-- 8 -->
<g id="node9" class="node">
<title>8</title>
<polygon fill="#8139e5" stroke="#000000" points="258.5,-149.5 148.5,-149.5 148.5,-96.5 258.5,-96.5 258.5,-149.5"/>
<text text-anchor="middle" x="203.5" y="-134.3" font-family="Times,serif" font-size="14.00" fill="#000000">samples = 1</text>
<text text-anchor="middle" x="203.5" y="-119.3" font-family="Times,serif" font-size="14.00" fill="#000000">value = [0, 0, 1]</text>
<text text-anchor="middle" x="203.5" y="-104.3" font-family="Times,serif" font-size="14.00" fill="#000000">class = virginica</text>
</g>
<!-- 7&#45;&gt;8 -->
<g id="edge8" class="edge">
<title>7&#45;&gt;8</title>
<path fill="none" stroke="#000000" d="M307.7472,-192.9465C289.6891,-180.8301 269.4227,-167.232 251.5941,-155.2696"/>
<polygon fill="#000000" stroke="#000000" points="253.3121,-152.2075 243.058,-149.5422 249.4119,-158.0203 253.3121,-152.2075"/>
</g>
<!-- 9 -->
<g id="node10" class="node">
<title>9</title>
<polygon fill="#9cf2c0" stroke="#000000" points="440.5,-157 276.5,-157 276.5,-89 440.5,-89 440.5,-157"/>
<text text-anchor="middle" x="358.5" y="-141.8" font-family="Times,serif" font-size="14.00" fill="#000000">petal length (cm) &lt;= 5.45</text>
<text text-anchor="middle" x="358.5" y="-126.8" font-family="Times,serif" font-size="14.00" fill="#000000">samples = 3</text>
<text text-anchor="middle" x="358.5" y="-111.8" font-family="Times,serif" font-size="14.00" fill="#000000">value = [0, 2, 1]</text>
<text text-anchor="middle" x="358.5" y="-96.8" font-family="Times,serif" font-size="14.00" fill="#000000">class = versicolor</text>
</g>
<!-- 7&#45;&gt;9 -->
<g id="edge9" class="edge">
<title>7&#45;&gt;9</title>
<path fill="none" stroke="#000000" d="M358.5,-192.9465C358.5,-184.776 358.5,-175.9318 358.5,-167.3697"/>
<polygon fill="#000000" stroke="#000000" points="362.0001,-167.13 358.5,-157.13 355.0001,-167.13 362.0001,-167.13"/>
</g>
<!-- 10 -->
<g id="node11" class="node">
<title>10</title>
<polygon fill="#39e581" stroke="#000000" points="298,-53 183,-53 183,0 298,0 298,-53"/>
<text text-anchor="middle" x="240.5" y="-37.8" font-family="Times,serif" font-size="14.00" fill="#000000">samples = 2</text>
<text text-anchor="middle" x="240.5" y="-22.8" font-family="Times,serif" font-size="14.00" fill="#000000">value = [0, 2, 0]</text>
<text text-anchor="middle" x="240.5" y="-7.8" font-family="Times,serif" font-size="14.00" fill="#000000">class = versicolor</text>
</g>
<!-- 9&#45;&gt;10 -->
<g id="edge10" class="edge">
<title>9&#45;&gt;10</title>
<path fill="none" stroke="#000000" d="M316.8976,-88.9777C305.2526,-79.4545 292.6146,-69.1191 281.0325,-59.6473"/>
<polygon fill="#000000" stroke="#000000" points="283.1648,-56.8697 273.208,-53.2485 278.7333,-62.2885 283.1648,-56.8697"/>
</g>
<!-- 11 -->
<g id="node12" class="node">
<title>11</title>
<polygon fill="#8139e5" stroke="#000000" points="426.5,-53 316.5,-53 316.5,0 426.5,0 426.5,-53"/>
<text text-anchor="middle" x="371.5" y="-37.8" font-family="Times,serif" font-size="14.00" fill="#000000">samples = 1</text>
<text text-anchor="middle" x="371.5" y="-22.8" font-family="Times,serif" font-size="14.00" fill="#000000">value = [0, 0, 1]</text>
<text text-anchor="middle" x="371.5" y="-7.8" font-family="Times,serif" font-size="14.00" fill="#000000">class = virginica</text>
</g>
<!-- 9&#45;&gt;11 -->
<g id="edge11" class="edge">
<title>9&#45;&gt;11</title>
<path fill="none" stroke="#000000" d="M363.0833,-88.9777C364.2059,-80.6449 365.4122,-71.6903 366.551,-63.2364"/>
<polygon fill="#000000" stroke="#000000" points="370.0301,-63.6263 367.8966,-53.2485 363.0927,-62.6916 370.0301,-63.6263"/>
</g>
<!-- 13 -->
<g id="node14" class="node">
<title>13</title>
<polygon fill="#c09cf2" stroke="#000000" points="624,-157 459,-157 459,-89 624,-89 624,-157"/>
<text text-anchor="middle" x="541.5" y="-141.8" font-family="Times,serif" font-size="14.00" fill="#000000">sepal length (cm) &lt;= 5.95</text>
<text text-anchor="middle" x="541.5" y="-126.8" font-family="Times,serif" font-size="14.00" fill="#000000">samples = 3</text>
<text text-anchor="middle" x="541.5" y="-111.8" font-family="Times,serif" font-size="14.00" fill="#000000">value = [0, 1, 2]</text>
<text text-anchor="middle" x="541.5" y="-96.8" font-family="Times,serif" font-size="14.00" fill="#000000">class = virginica</text>
</g>
<!-- 12&#45;&gt;13 -->
<g id="edge13" class="edge">
<title>12&#45;&gt;13</title>
<path fill="none" stroke="#000000" d="M541.5,-192.9465C541.5,-184.776 541.5,-175.9318 541.5,-167.3697"/>
<polygon fill="#000000" stroke="#000000" points="545.0001,-167.13 541.5,-157.13 538.0001,-167.13 545.0001,-167.13"/>
</g>
<!-- 16 -->
<g id="node17" class="node">
<title>16</title>
<polygon fill="#8139e5" stroke="#000000" points="759,-149.5 642,-149.5 642,-96.5 759,-96.5 759,-149.5"/>
<text text-anchor="middle" x="700.5" y="-134.3" font-family="Times,serif" font-size="14.00" fill="#000000">samples = 34</text>
<text text-anchor="middle" x="700.5" y="-119.3" font-family="Times,serif" font-size="14.00" fill="#000000">value = [0, 0, 34]</text>
<text text-anchor="middle" x="700.5" y="-104.3" font-family="Times,serif" font-size="14.00" fill="#000000">class = virginica</text>
</g>
<!-- 12&#45;&gt;16 -->
<g id="edge16" class="edge">
<title>12&#45;&gt;16</title>
<path fill="none" stroke="#000000" d="M593.5625,-192.9465C612.0866,-180.8301 632.876,-167.232 651.1648,-155.2696"/>
<polygon fill="#000000" stroke="#000000" points="653.4682,-157.9452 659.9211,-149.5422 649.6364,-152.087 653.4682,-157.9452"/>
</g>
<!-- 14 -->
<g id="node15" class="node">
<title>14</title>
<polygon fill="#39e581" stroke="#000000" points="586,-53 471,-53 471,0 586,0 586,-53"/>
<text text-anchor="middle" x="528.5" y="-37.8" font-family="Times,serif" font-size="14.00" fill="#000000">samples = 1</text>
<text text-anchor="middle" x="528.5" y="-22.8" font-family="Times,serif" font-size="14.00" fill="#000000">value = [0, 1, 0]</text>
<text text-anchor="middle" x="528.5" y="-7.8" font-family="Times,serif" font-size="14.00" fill="#000000">class = versicolor</text>
</g>
<!-- 13&#45;&gt;14 -->
<g id="edge14" class="edge">
<title>13&#45;&gt;14</title>
<path fill="none" stroke="#000000" d="M536.9167,-88.9777C535.7941,-80.6449 534.5878,-71.6903 533.449,-63.2364"/>
<polygon fill="#000000" stroke="#000000" points="536.9073,-62.6916 532.1034,-53.2485 529.9699,-63.6263 536.9073,-62.6916"/>
</g>
<!-- 15 -->
<g id="node16" class="node">
<title>15</title>
<polygon fill="#8139e5" stroke="#000000" points="714.5,-53 604.5,-53 604.5,0 714.5,0 714.5,-53"/>
<text text-anchor="middle" x="659.5" y="-37.8" font-family="Times,serif" font-size="14.00" fill="#000000">samples = 2</text>
<text text-anchor="middle" x="659.5" y="-22.8" font-family="Times,serif" font-size="14.00" fill="#000000">value = [0, 0, 2]</text>
<text text-anchor="middle" x="659.5" y="-7.8" font-family="Times,serif" font-size="14.00" fill="#000000">class = virginica</text>
</g>
<!-- 13&#45;&gt;15 -->
<g id="edge15" class="edge">
<title>13&#45;&gt;15</title>
<path fill="none" stroke="#000000" d="M583.1024,-88.9777C594.7474,-79.4545 607.3854,-69.1191 618.9675,-59.6473"/>
<polygon fill="#000000" stroke="#000000" points="621.2667,-62.2885 626.792,-53.2485 616.8352,-56.8697 621.2667,-62.2885"/>
</g>
</g>
</svg>
