<?xml version="1.0" encoding="UTF-8" standalone="no"?>
<!DOCTYPE svg PUBLIC "-//W3C//DTD SVG 1.1//EN"
 "http://www.w3.org/Graphics/SVG/1.1/DTD/svg11.dtd">
<!-- Generated by graphviz version 2.38.0 (20140413.2041)
 -->
<!-- Title: Tree Pages: 1 -->
<svg width="746pt" height="671pt"
 viewBox="0.00 0.00 746.00 671.00" xmlns="http://www.w3.org/2000/svg" xmlns:xlink="http://www.w3.org/1999/xlink">
<g id="graph0" class="graph" transform="scale(1 1) rotate(0) translate(4 667)">
<title>Tree</title>
<polygon fill="white" stroke="none" points="-4,4 -4,-667 742,-667 742,4 -4,4"/>
<!-- 0 -->
<g id="node1" class="node"><title>0</title>
<polygon fill="#fffdfd" stroke="black" points="272,-663 114,-663 114,-580 272,-580 272,-663"/>
<text text-anchor="middle" x="193" y="-647.8" font-family="Times New Roman,serif" font-size="14.00">petal length (cm) &lt;= 2.45</text>
<text text-anchor="middle" x="193" y="-632.8" font-family="Times New Roman,serif" font-size="14.00">gini = 0.667</text>
<text text-anchor="middle" x="193" y="-617.8" font-family="Times New Roman,serif" font-size="14.00">samples = 120</text>
<text text-anchor="middle" x="193" y="-602.8" font-family="Times New Roman,serif" font-size="14.00">value = [41, 40, 39]</text>
<text text-anchor="middle" x="193" y="-587.8" font-family="Times New Roman,serif" font-size="14.00">class = setosa</text>
</g>
<!-- 1 -->
<g id="node2" class="node"><title>1</title>
<polygon fill="#e58139" stroke="black" points="173,-536.5 61,-536.5 61,-468.5 173,-468.5 173,-536.5"/>
<text text-anchor="middle" x="117" y="-521.3" font-family="Times New Roman,serif" font-size="14.00">gini = 0.0</text>
<text text-anchor="middle" x="117" y="-506.3" font-family="Times New Roman,serif" font-size="14.00">samples = 41</text>
<text text-anchor="middle" x="117" y="-491.3" font-family="Times New Roman,serif" font-size="14.00">value = [41, 0, 0]</text>
<text text-anchor="middle" x="117" y="-476.3" font-family="Times New Roman,serif" font-size="14.00">class = setosa</text>
</g>
<!-- 0&#45;&gt;1 -->
<g id="edge1" class="edge"><title>0&#45;&gt;1</title>
<path fill="none" stroke="black" d="M166.632,-579.907C159.321,-568.652 151.374,-556.418 144.026,-545.106"/>
<polygon fill="black" stroke="black" points="146.927,-543.146 138.544,-536.667 141.057,-546.96 146.927,-543.146"/>
<text text-anchor="middle" x="133.349" y="-557.421" font-family="Times New Roman,serif" font-size="14.00">True</text>
</g>
<!-- 2 -->
<g id="node3" class="node"><title>2</title>
<polygon fill="#fafefc" stroke="black" points="346.5,-544 191.5,-544 191.5,-461 346.5,-461 346.5,-544"/>
<text text-anchor="middle" x="269" y="-528.8" font-family="Times New Roman,serif" font-size="14.00">petal width (cm) &lt;= 1.55</text>
<text text-anchor="middle" x="269" y="-513.8" font-family="Times New Roman,serif" font-size="14.00">gini = 0.5</text>
<text text-anchor="middle" x="269" y="-498.8" font-family="Times New Roman,serif" font-size="14.00">samples = 79</text>
<text text-anchor="middle" x="269" y="-483.8" font-family="Times New Roman,serif" font-size="14.00">value = [0, 40, 39]</text>
<text text-anchor="middle" x="269" y="-468.8" font-family="Times New Roman,serif" font-size="14.00">class = versicolor</text>
</g>
<!-- 0&#45;&gt;2 -->
<g id="edge2" class="edge"><title>0&#45;&gt;2</title>
<path fill="none" stroke="black" d="M219.368,-579.907C225.086,-571.105 231.193,-561.703 237.098,-552.612"/>
<polygon fill="black" stroke="black" points="240.167,-554.313 242.679,-544.021 234.296,-550.5 240.167,-554.313"/>
<text text-anchor="middle" x="247.874" y="-564.775" font-family="Times New Roman,serif" font-size="14.00">False</text>
</g>
<!-- 3 -->
<g id="node4" class="node"><title>3</title>
<polygon fill="#3ee684" stroke="black" points="261,-425 103,-425 103,-342 261,-342 261,-425"/>
<text text-anchor="middle" x="182" y="-409.8" font-family="Times New Roman,serif" font-size="14.00">petal length (cm) &lt;= 5.25</text>
<text text-anchor="middle" x="182" y="-394.8" font-family="Times New Roman,serif" font-size="14.00">gini = 0.051</text>
<text text-anchor="middle" x="182" y="-379.8" font-family="Times New Roman,serif" font-size="14.00">samples = 38</text>
<text text-anchor="middle" x="182" y="-364.8" font-family="Times New Roman,serif" font-size="14.00">value = [0, 37, 1]</text>
<text text-anchor="middle" x="182" y="-349.8" font-family="Times New Roman,serif" font-size="14.00">class = versicolor</text>
</g>
<!-- 2&#45;&gt;3 -->
<g id="edge3" class="edge"><title>2&#45;&gt;3</title>
<path fill="none" stroke="black" d="M238.816,-460.907C232.135,-451.923 224.991,-442.315 218.101,-433.05"/>
<polygon fill="black" stroke="black" points="220.907,-430.957 212.131,-425.021 215.289,-435.134 220.907,-430.957"/>
</g>
<!-- 6 -->
<g id="node7" class="node"><title>6</title>
<polygon fill="#8b49e7" stroke="black" points="434.5,-425 279.5,-425 279.5,-342 434.5,-342 434.5,-425"/>
<text text-anchor="middle" x="357" y="-409.8" font-family="Times New Roman,serif" font-size="14.00">petal width (cm) &lt;= 1.75</text>
<text text-anchor="middle" x="357" y="-394.8" font-family="Times New Roman,serif" font-size="14.00">gini = 0.136</text>
<text text-anchor="middle" x="357" y="-379.8" font-family="Times New Roman,serif" font-size="14.00">samples = 41</text>
<text text-anchor="middle" x="357" y="-364.8" font-family="Times New Roman,serif" font-size="14.00">value = [0, 3, 38]</text>
<text text-anchor="middle" x="357" y="-349.8" font-family="Times New Roman,serif" font-size="14.00">class = virginica</text>
</g>
<!-- 2&#45;&gt;6 -->
<g id="edge6" class="edge"><title>2&#45;&gt;6</title>
<path fill="none" stroke="black" d="M299.531,-460.907C306.289,-451.923 313.515,-442.315 320.484,-433.05"/>
<polygon fill="black" stroke="black" points="323.309,-435.116 326.523,-425.021 317.715,-430.909 323.309,-435.116"/>
</g>
<!-- 4 -->
<g id="node5" class="node"><title>4</title>
<polygon fill="#39e581" stroke="black" points="116,-298.5 0,-298.5 0,-230.5 116,-230.5 116,-298.5"/>
<text text-anchor="middle" x="58" y="-283.3" font-family="Times New Roman,serif" font-size="14.00">gini = 0.0</text>
<text text-anchor="middle" x="58" y="-268.3" font-family="Times New Roman,serif" font-size="14.00">samples = 37</text>
<text text-anchor="middle" x="58" y="-253.3" font-family="Times New Roman,serif" font-size="14.00">value = [0, 37, 0]</text>
<text text-anchor="middle" x="58" y="-238.3" font-family="Times New Roman,serif" font-size="14.00">class = versicolor</text>
</g>
<!-- 3&#45;&gt;4 -->
<g id="edge4" class="edge"><title>3&#45;&gt;4</title>
<path fill="none" stroke="black" d="M138.979,-341.907C126.582,-330.211 113.066,-317.457 100.69,-305.78"/>
<polygon fill="black" stroke="black" points="102.827,-302.984 93.1513,-298.667 98.0227,-308.075 102.827,-302.984"/>
</g>
<!-- 5 -->
<g id="node6" class="node"><title>5</title>
<polygon fill="#8139e5" stroke="black" points="241.5,-298.5 134.5,-298.5 134.5,-230.5 241.5,-230.5 241.5,-298.5"/>
<text text-anchor="middle" x="188" y="-283.3" font-family="Times New Roman,serif" font-size="14.00">gini = 0.0</text>
<text text-anchor="middle" x="188" y="-268.3" font-family="Times New Roman,serif" font-size="14.00">samples = 1</text>
<text text-anchor="middle" x="188" y="-253.3" font-family="Times New Roman,serif" font-size="14.00">value = [0, 0, 1]</text>
<text text-anchor="middle" x="188" y="-238.3" font-family="Times New Roman,serif" font-size="14.00">class = virginica</text>
</g>
<!-- 3&#45;&gt;5 -->
<g id="edge5" class="edge"><title>3&#45;&gt;5</title>
<path fill="none" stroke="black" d="M184.082,-341.907C184.631,-331.204 185.225,-319.615 185.781,-308.776"/>
<polygon fill="black" stroke="black" points="189.282,-308.833 186.299,-298.667 182.291,-308.475 189.282,-308.833"/>
</g>
<!-- 7 -->
<g id="node8" class="node"><title>7</title>
<polygon fill="#ffffff" stroke="black" points="431,-306 271,-306 271,-223 431,-223 431,-306"/>
<text text-anchor="middle" x="351" y="-290.8" font-family="Times New Roman,serif" font-size="14.00">sepal length (cm) &lt;= 5.45</text>
<text text-anchor="middle" x="351" y="-275.8" font-family="Times New Roman,serif" font-size="14.00">gini = 0.5</text>
<text text-anchor="middle" x="351" y="-260.8" font-family="Times New Roman,serif" font-size="14.00">samples = 4</text>
<text text-anchor="middle" x="351" y="-245.8" font-family="Times New Roman,serif" font-size="14.00">value = [0, 2, 2]</text>
<text text-anchor="middle" x="351" y="-230.8" font-family="Times New Roman,serif" font-size="14.00">class = versicolor</text>
</g>
<!-- 6&#45;&gt;7 -->
<g id="edge7" class="edge"><title>6&#45;&gt;7</title>
<path fill="none" stroke="black" d="M354.918,-341.907C354.49,-333.558 354.034,-324.671 353.591,-316.02"/>
<polygon fill="black" stroke="black" points="357.086,-315.828 353.078,-306.021 350.095,-316.187 357.086,-315.828"/>
</g>
<!-- 12 -->
<g id="node13" class="node"><title>12</title>
<polygon fill="#843ee6" stroke="black" points="607,-306 449,-306 449,-223 607,-223 607,-306"/>
<text text-anchor="middle" x="528" y="-290.8" font-family="Times New Roman,serif" font-size="14.00">petal length (cm) &lt;= 4.85</text>
<text text-anchor="middle" x="528" y="-275.8" font-family="Times New Roman,serif" font-size="14.00">gini = 0.053</text>
<text text-anchor="middle" x="528" y="-260.8" font-family="Times New Roman,serif" font-size="14.00">samples = 37</text>
<text text-anchor="middle" x="528" y="-245.8" font-family="Times New Roman,serif" font-size="14.00">value = [0, 1, 36]</text>
<text text-anchor="middle" x="528" y="-230.8" font-family="Times New Roman,serif" font-size="14.00">class = virginica</text>
</g>
<!-- 6&#45;&gt;12 -->
<g id="edge12" class="edge"><title>6&#45;&gt;12</title>
<path fill="none" stroke="black" d="M416.328,-341.907C430.52,-332.197 445.776,-321.758 460.314,-311.811"/>
<polygon fill="black" stroke="black" points="462.501,-314.556 468.777,-306.021 458.548,-308.779 462.501,-314.556"/>
</g>
<!-- 8 -->
<g id="node9" class="node"><title>8</title>
<polygon fill="#8139e5" stroke="black" points="253.5,-179.5 146.5,-179.5 146.5,-111.5 253.5,-111.5 253.5,-179.5"/>
<text text-anchor="middle" x="200" y="-164.3" font-family="Times New Roman,serif" font-size="14.00">gini = 0.0</text>
<text text-anchor="middle" x="200" y="-149.3" font-family="Times New Roman,serif" font-size="14.00">samples = 1</text>
<text text-anchor="middle" x="200" y="-134.3" font-family="Times New Roman,serif" font-size="14.00">value = [0, 0, 1]</text>
<text text-anchor="middle" x="200" y="-119.3" font-family="Times New Roman,serif" font-size="14.00">class = virginica</text>
</g>
<!-- 7&#45;&gt;8 -->
<g id="edge8" class="edge"><title>7&#45;&gt;8</title>
<path fill="none" stroke="black" d="M298.611,-222.907C283.231,-210.99 266.434,-197.976 251.133,-186.12"/>
<polygon fill="black" stroke="black" points="252.854,-183.025 242.805,-179.667 248.566,-188.559 252.854,-183.025"/>
</g>
<!-- 9 -->
<g id="node10" class="node"><title>9</title>
<polygon fill="#9cf2c0" stroke="black" points="430,-187 272,-187 272,-104 430,-104 430,-187"/>
<text text-anchor="middle" x="351" y="-171.8" font-family="Times New Roman,serif" font-size="14.00">petal length (cm) &lt;= 5.45</text>
<text text-anchor="middle" x="351" y="-156.8" font-family="Times New Roman,serif" font-size="14.00">gini = 0.444</text>
<text text-anchor="middle" x="351" y="-141.8" font-family="Times New Roman,serif" font-size="14.00">samples = 3</text>
<text text-anchor="middle" x="351" y="-126.8" font-family="Times New Roman,serif" font-size="14.00">value = [0, 2, 1]</text>
<text text-anchor="middle" x="351" y="-111.8" font-family="Times New Roman,serif" font-size="14.00">class = versicolor</text>
</g>
<!-- 7&#45;&gt;9 -->
<g id="edge9" class="edge"><title>7&#45;&gt;9</title>
<path fill="none" stroke="black" d="M351,-222.907C351,-214.649 351,-205.864 351,-197.302"/>
<polygon fill="black" stroke="black" points="354.5,-197.021 351,-187.021 347.5,-197.021 354.5,-197.021"/>
</g>
<!-- 10 -->
<g id="node11" class="node"><title>10</title>
<polygon fill="#39e581" stroke="black" points="291,-68 175,-68 175,-0 291,-0 291,-68"/>
<text text-anchor="middle" x="233" y="-52.8" font-family="Times New Roman,serif" font-size="14.00">gini = 0.0</text>
<text text-anchor="middle" x="233" y="-37.8" font-family="Times New Roman,serif" font-size="14.00">samples = 2</text>
<text text-anchor="middle" x="233" y="-22.8" font-family="Times New Roman,serif" font-size="14.00">value = [0, 2, 0]</text>
<text text-anchor="middle" x="233" y="-7.8" font-family="Times New Roman,serif" font-size="14.00">class = versicolor</text>
</g>
<!-- 9&#45;&gt;10 -->
<g id="edge10" class="edge"><title>9&#45;&gt;10</title>
<path fill="none" stroke="black" d="M307.061,-103.726C297.036,-94.423 286.389,-84.5428 276.386,-75.2612"/>
<polygon fill="black" stroke="black" points="278.595,-72.5362 268.884,-68.2996 273.834,-77.6673 278.595,-72.5362"/>
</g>
<!-- 11 -->
<g id="node12" class="node"><title>11</title>
<polygon fill="#8139e5" stroke="black" points="416.5,-68 309.5,-68 309.5,-0 416.5,-0 416.5,-68"/>
<text text-anchor="middle" x="363" y="-52.8" font-family="Times New Roman,serif" font-size="14.00">gini = 0.0</text>
<text text-anchor="middle" x="363" y="-37.8" font-family="Times New Roman,serif" font-size="14.00">samples = 1</text>
<text text-anchor="middle" x="363" y="-22.8" font-family="Times New Roman,serif" font-size="14.00">value = [0, 0, 1]</text>
<text text-anchor="middle" x="363" y="-7.8" font-family="Times New Roman,serif" font-size="14.00">class = virginica</text>
</g>
<!-- 9&#45;&gt;11 -->
<g id="edge11" class="edge"><title>9&#45;&gt;11</title>
<path fill="none" stroke="black" d="M355.468,-103.726C356.378,-95.4263 357.338,-86.6671 358.257,-78.2834"/>
<polygon fill="black" stroke="black" points="361.74,-78.6214 359.351,-68.2996 354.782,-77.8588 361.74,-78.6214"/>
</g>
<!-- 13 -->
<g id="node14" class="node"><title>13</title>
<polygon fill="#c09cf2" stroke="black" points="608,-187 448,-187 448,-104 608,-104 608,-187"/>
<text text-anchor="middle" x="528" y="-171.8" font-family="Times New Roman,serif" font-size="14.00">sepal length (cm) &lt;= 5.95</text>
<text text-anchor="middle" x="528" y="-156.8" font-family="Times New Roman,serif" font-size="14.00">gini = 0.444</text>
<text text-anchor="middle" x="528" y="-141.8" font-family="Times New Roman,serif" font-size="14.00">samples = 3</text>
<text text-anchor="middle" x="528" y="-126.8" font-family="Times New Roman,serif" font-size="14.00">value = [0, 1, 2]</text>
<text text-anchor="middle" x="528" y="-111.8" font-family="Times New Roman,serif" font-size="14.00">class = virginica</text>
</g>
<!-- 12&#45;&gt;13 -->
<g id="edge13" class="edge"><title>12&#45;&gt;13</title>
<path fill="none" stroke="black" d="M528,-222.907C528,-214.649 528,-205.864 528,-197.302"/>
<polygon fill="black" stroke="black" points="531.5,-197.021 528,-187.021 524.5,-197.021 531.5,-197.021"/>
</g>
<!-- 16 -->
<g id="node17" class="node"><title>16</title>
<polygon fill="#8139e5" stroke="black" points="738,-179.5 626,-179.5 626,-111.5 738,-111.5 738,-179.5"/>
<text text-anchor="middle" x="682" y="-164.3" font-family="Times New Roman,serif" font-size="14.00">gini = 0.0</text>
<text text-anchor="middle" x="682" y="-149.3" font-family="Times New Roman,serif" font-size="14.00">samples = 34</text>
<text text-anchor="middle" x="682" y="-134.3" font-family="Times New Roman,serif" font-size="14.00">value = [0, 0, 34]</text>
<text text-anchor="middle" x="682" y="-119.3" font-family="Times New Roman,serif" font-size="14.00">class = virginica</text>
</g>
<!-- 12&#45;&gt;16 -->
<g id="edge16" class="edge"><title>12&#45;&gt;16</title>
<path fill="none" stroke="black" d="M581.43,-222.907C597.261,-210.88 614.563,-197.735 630.284,-185.791"/>
<polygon fill="black" stroke="black" points="632.499,-188.503 638.344,-179.667 628.264,-182.93 632.499,-188.503"/>
</g>
<!-- 14 -->
<g id="node15" class="node"><title>14</title>
<polygon fill="#39e581" stroke="black" points="574,-68 458,-68 458,-0 574,-0 574,-68"/>
<text text-anchor="middle" x="516" y="-52.8" font-family="Times New Roman,serif" font-size="14.00">gini = 0.0</text>
<text text-anchor="middle" x="516" y="-37.8" font-family="Times New Roman,serif" font-size="14.00">samples = 1</text>
<text text-anchor="middle" x="516" y="-22.8" font-family="Times New Roman,serif" font-size="14.00">value = [0, 1, 0]</text>
<text text-anchor="middle" x="516" y="-7.8" font-family="Times New Roman,serif" font-size="14.00">class = versicolor</text>
</g>
<!-- 13&#45;&gt;14 -->
<g id="edge14" class="edge"><title>13&#45;&gt;14</title>
<path fill="none" stroke="black" d="M523.532,-103.726C522.622,-95.4263 521.662,-86.6671 520.743,-78.2834"/>
<polygon fill="black" stroke="black" points="524.218,-77.8588 519.649,-68.2996 517.26,-78.6214 524.218,-77.8588"/>
</g>
<!-- 15 -->
<g id="node16" class="node"><title>15</title>
<polygon fill="#8139e5" stroke="black" points="699.5,-68 592.5,-68 592.5,-0 699.5,-0 699.5,-68"/>
<text text-anchor="middle" x="646" y="-52.8" font-family="Times New Roman,serif" font-size="14.00">gini = 0.0</text>
<text text-anchor="middle" x="646" y="-37.8" font-family="Times New Roman,serif" font-size="14.00">samples = 2</text>
<text text-anchor="middle" x="646" y="-22.8" font-family="Times New Roman,serif" font-size="14.00">value = [0, 0, 2]</text>
<text text-anchor="middle" x="646" y="-7.8" font-family="Times New Roman,serif" font-size="14.00">class = virginica</text>
</g>
<!-- 13&#45;&gt;15 -->
<g id="edge15" class="edge"><title>13&#45;&gt;15</title>
<path fill="none" stroke="black" d="M571.939,-103.726C581.964,-94.423 592.611,-84.5428 602.614,-75.2612"/>
<polygon fill="black" stroke="black" points="605.166,-77.6673 610.116,-68.2996 600.405,-72.5362 605.166,-77.6673"/>
</g>
</g>
</svg>
